Coordinates
version=1
nRows=33
nColumns=34
inDegrees=no

Units are S.I. units (second, meters, Newtons, ...)
If the header above contains a line with 'inDegrees', this indicates whether rotational values are in degrees (yes) or radians (no).

endheader
time	pelvis_tilt	pelvis_list	pelvis_rotation	pelvis_tx	pelvis_ty	pelvis_tz	hip_flexion_r	hip_adduction_r	hip_rotation_r	knee_angle_r	ankle_angle_r	subtalar_angle_r	mtp_angle_r	hip_flexion_l	hip_adduction_l	hip_rotation_l	knee_angle_l	ankle_angle_l	subtalar_angle_l	mtp_angle_l	lumbar_extension	lumbar_bending	lumbar_rotation	arm_flex_r	arm_add_r	arm_rot_r	elbow_flex_r	pro_sup_r	arm_flex_l	arm_add_l	arm_rot_l	elbow_flex_l	pro_sup_l
0	0.0809695	0.0593226	0.0408286	-0.240583	0.903166	-0.28814	0.420003	-0.078888	-0.182818	0.0855304	0.276799	0.0868706	-0.00999635	-0.377796	0.0619267	-0.0907217	0.218642	0.378015	0.0942976	-0.0106064	-0.173595	-0.0425233	-0.167586	-0.187787	-0.0807556	-0.373098	0.562484	2.03459	0.184452	-0.210601	0.0580839	0.950798	1.78512
0.01	0.0810912	0.0517508	0.0416438	-0.223601	0.909407	-0.286473	0.416109	-0.0674448	-0.1701	0.0952948	0.240579	0.0292254	-0.00999275	-0.386051	0.049531	-0.0968321	0.23456	0.374419	0.0988888	-0.0105983	-0.171334	-0.0331515	-0.167904	-0.188004	-0.0820022	-0.375652	0.556515	2.03291	0.170172	-0.201799	0.0404881	0.960327	1.78614
0.02	0.0803373	0.0436326	0.0419067	-0.206674	0.914765	-0.284785	0.414085	-0.0561764	-0.160462	0.108198	0.206114	-0.0211356	-0.00998914	-0.39044	0.0363888	-0.103101	0.254905	0.363685	0.0995026	-0.0105903	-0.167712	-0.0231215	-0.167397	-0.188776	-0.0834254	-0.378539	0.551559	2.0314	0.15557	-0.192848	0.0239786	0.966755	1.78719
0.03	0.0787172	0.0349648	0.0416105	-0.189818	0.919299	-0.283074	0.413893	-0.0450689	-0.153823	0.124182	0.173498	-0.0642723	-0.00998553	-0.390933	0.0224919	-0.109533	0.279722	0.345742	0.0961051	-0.0105822	-0.162745	-0.0124341	-0.166056	-0.190096	-0.0850273	-0.381754	0.547623	2.03004	0.140661	-0.183749	0.0085561	0.970074	1.78829
0.04	0.0762585	0.0257493	0.0407355	-0.173052	0.923076	-0.281337	0.415408	-0.0340858	-0.149963	0.143085	0.143037	-0.100363	-0.00998193	-0.387456	0.00781974	-0.116131	0.309115	0.320392	0.0886072	-0.0105741	-0.15649	-0.00109399	-0.163856	-0.191941	-0.0868144	-0.385266	0.544721	2.02887	0.125489	-0.174513	-0.00577945	0.970267	1.78945
0.05	0.0730196	0.0159985	0.0392494	-0.156405	0.92617	-0.279571	0.418406	-0.0231664	-0.148513	0.164621	0.115297	-0.129739	-0.00997832	-0.379909	-0.00765652	-0.122881	0.343232	0.287336	0.076879	-0.0105661	-0.149075	0.0108842	-0.160753	-0.19426	-0.0888004	-0.389015	0.542881	2.02793	0.11015	-0.165158	-0.0190313	0.967319	1.79073
0.06	0.0690992	0.0057379	0.0371131	-0.139909	0.928666	-0.277769	0.422548	-0.0122242	-0.148973	0.188363	0.0910519	-0.152911	-0.00997471	-0.368199	-0.0239666	-0.129727	0.38221	0.246285	0.0608048	-0.010558	-0.140717	0.0234708	-0.156688	-0.196968	-0.091008	-0.392893	0.542139	2.02727	0.0947963	-0.155718	-0.0312094	0.961236	1.79221
0.07	0.0646385	-0.00499372	0.0342929	-0.123608	0.930652	-0.275926	0.427391	-0.00114479	-0.150756	0.213736	0.0711443	-0.170569	-0.00997111	-0.352277	-0.0411288	-0.136554	0.426103	0.197156	0.0403668	-0.0105499	-0.131722	0.0366199	-0.151598	-0.19994	-0.0934687	-0.396737	0.542529	2.02696	0.0796386	-0.146242	-0.0423336	0.95206	1.79401
0.08	0.059816	-0.0161441	0.030776	-0.107546	0.932223	-0.274041	0.432405	0.0102068	-0.153243	0.240019	0.0562927	-0.183549	-0.0099675	-0.332178	-0.0591291	-0.143159	0.474806	0.140298	0.0157325	-0.0105418	-0.122471	0.0502652	-0.145439	-0.203008	-0.0962217	-0.400326	0.544071	2.02707	0.0649275	-0.136797	-0.0524365	0.939875	1.79625
0.09	0.0548348	-0.0276408	0.0265881	-0.0917699	0.933471	-0.272115	0.437006	0.0219632	-0.155844	0.26637	0.046924	-0.192762	-0.0099639	-0.30805	-0.0778879	-0.14923	0.527999	0.0767133	-0.0126746	-0.0105338	-0.11339	0.064311	-0.138204	-0.205969	-0.09931	-0.403388	0.546754	2.02764	0.0509325	-0.127469	-0.0615663	0.924816	1.79903
0.1	0.0499065	-0.0393764	0.0218087	-0.0763231	0.934488	-0.270158	0.440601	0.0342128	-0.158069	0.291883	0.0430728	-0.199097	-0.00996029	-0.280159	-0.0972187	-0.154344	0.585106	0.00820132	-0.0441418	-0.0105257	-0.104908	0.0786148	-0.129955	-0.208585	-0.102775	-0.405617	0.550518	2.02869	0.0379126	-0.118361	-0.0697898	0.907058	1.8024
0.11	0.0452332	-0.0511898	0.0165816	-0.061242	0.935361	-0.268186	0.442646	0.0469472	-0.159585	0.315675	0.0443753	-0.203316	-0.00995668	-0.248877	-0.116789	-0.15798	0.645303	-0.0626141	-0.0776807	-0.0105176	-0.0974173	0.0929667	-0.120838	-0.210604	-0.106646	-0.406694	0.555252	2.03021	0.026088	-0.109592	-0.0771953	0.886816	1.80635
0.12	0.0409909	-0.0628511	0.0111173	-0.0465533	0.936166	-0.266224	0.442694	0.0600147	-0.160255	0.336975	0.0501482	-0.205975	-0.00995308	-0.214657	-0.136101	-0.159568	0.70755	-0.13242	-0.112088	-0.0105095	-0.0912322	0.107073	-0.111093	-0.211769	-0.110937	-0.406321	0.560791	2.03212	0.015616	-0.101295	-0.0838917	0.864337	1.81081
0.13	0.0373148	-0.0740584	0.00568556	-0.0322718	0.936969	-0.264305	0.44044	0.0730966	-0.160148	0.355216	0.0595224	-0.207377	-0.00994947	-0.177987	-0.154501	-0.158562	0.770667	-0.197517	-0.146054	-0.0105015	-0.0865594	0.120559	-0.101053	-0.211847	-0.11563	-0.404254	0.566931	2.03431	0.00657458	-0.0936069	-0.0900041	0.839896	1.81563
0.14	0.0342885	-0.0844549	0.000596503	-0.0183991	0.937821	-0.262462	0.435745	0.0857223	-0.159528	0.370086	0.071588	-0.207574	-0.00994586	-0.139356	-0.171232	-0.154531	0.833409	-0.254261	-0.178292	-0.0104934	-0.083479	0.132985	-0.0911119	-0.210648	-0.120678	-0.40033	0.573454	2.03662	-0.00104533	-0.0866672	-0.0956648	0.813798	1.82063
0.15	0.0319395	-0.0936646	-0.0038293	-0.00492435	0.938762	-0.260729	0.428633	0.0973231	-0.158798	0.381532	0.0855141	-0.20641	-0.00994226	-0.0992193	-0.185514	-0.147238	0.894549	-0.299565	-0.207682	-0.0104853	-0.0819407	0.143893	-0.0816946	-0.208048	-0.126001	-0.394495	0.580152	2.03886	-0.00733984	-0.0806058	-0.101002	0.786378	1.82561
0.16	0.030241	-0.101339	-0.00729872	0.00817393	0.939818	-0.259135	0.419269	0.107317	-0.158435	0.389725	0.100619	-0.203601	-0.00993865	-0.0579938	-0.196644	-0.136698	0.952938	-0.331364	-0.233381	-0.0104772	-0.0817766	0.152864	-0.0732026	-0.204006	-0.13149	-0.386807	0.586861	2.04084	-0.012485	-0.0755351	-0.106132	0.758005	1.8304
0.17	0.0291192	-0.107204	-0.00958641	0.0209265	0.941001	-0.2577	0.407905	0.115203	-0.158903	0.394977	0.116387	-0.198833	-0.00993505	-0.0160644	-0.204086	-0.123201	1.00754	-0.348921	-0.254892	-0.0104691	-0.082731	0.15957	-0.065967	-0.198567	-0.137021	-0.377442	0.593473	2.04235	-0.016724	-0.0715398	-0.111149	0.729083	1.83486
0.18	0.028464	-0.111095	-0.0105701	0.0333713	0.942313	-0.25643	0.394831	0.120649	-0.160563	0.397657	0.132441	-0.191855	-0.00993144	0.0261934	-0.207542	-0.107288	1.05746	-0.352893	-0.272068	-0.010461	-0.0845008	0.163818	-0.0602052	-0.191852	-0.142465	-0.366667	0.599939	2.04323	-0.0203505	-0.068669	-0.116134	0.700049	1.83893
0.19	0.0281556	-0.112982	-0.0102569	0.0455525	0.943749	-0.255322	0.380317	0.123544	-0.163605	0.398103	0.1485	-0.182561	-0.00992784	0.0683941	-0.206987	-0.0897018	1.10196	-0.345148	-0.285058	-0.010453	-0.0867757	0.165574	-0.0559929	-0.184039	-0.147702	-0.354822	0.606259	2.04337	-0.0236873	-0.0669296	-0.121152	0.671358	1.84258
0.2	0.0280885	-0.112966	-0.00879466	0.0575178	0.945298	-0.254355	0.364585	0.124012	-0.168004	0.396573	0.164324	-0.171033	-0.00992423	0.110131	-0.202667	-0.0713068	1.14045	-0.328367	-0.294223	-0.0104449	-0.089274	0.164958	-0.0532558	-0.175334	-0.152638	-0.342276	0.612465	2.04277	-0.0270623	-0.0662851	-0.126266	0.643474	1.84584
0.21	0.0281763	-0.111257	-0.00646141	0.0693141	0.946949	-0.253502	0.34779	0.122391	-0.173512	0.393222	0.179689	-0.157545	-0.00992063	0.150981	-0.195065	-0.0530038	1.17251	-0.305536	-0.300025	-0.0104368	-0.091774	0.162221	-0.0517814	-0.16594	-0.157209	-0.329402	0.6186	2.04147	-0.0307834	-0.0666568	-0.131542	0.616837	1.84874
0.22	0.028355	-0.108145	-0.00363548	0.0809849	0.948683	-0.252726	0.330031	0.119171	-0.179695	0.388125	0.194376	-0.142527	-0.00991702	0.190518	-0.184843	-0.0356424	1.19786	-0.279462	-0.302941	-0.0104287	-0.0941286	0.157706	-0.0512476	-0.156035	-0.161386	-0.316534	0.624705	2.03962	-0.0351135	-0.0679316	-0.137054	0.591842	1.85132
0.23	0.0285819	-0.103957	-0.000752015	0.0925677	0.95048	-0.251989	0.311379	0.114913	-0.18601	0.381319	0.208184	-0.126494	-0.00991342	0.228346	-0.172763	-0.0199474	1.21637	-0.252391	-0.303399	-0.0104206	-0.096265	0.151806	-0.0512632	-0.145757	-0.165177	-0.30395	0.630818	2.03743	-0.0402499	-0.0699711	-0.142879	0.568808	1.8536
0.24	0.028829	-0.0990275	0.00174817	0.104092	0.952316	-0.251254	0.291908	0.110173	-0.191894	0.37286	0.220962	-0.10996	-0.00990981	0.264127	-0.159616	-0.00646505	1.22804	-0.225829	-0.301761	-0.0104125	-0.0981726	0.144921	-0.051414	-0.1352	-0.168616	-0.291852	0.636976	2.0351	-0.0463106	-0.0726244	-0.149092	0.547959	1.85554
0.25	0.0290761	-0.0936668	0.00346912	0.115579	0.95416	-0.250489	0.27173	0.105427	-0.196866	0.362869	0.232638	-0.0933492	-0.00990621	0.297599	-0.146154	0.00446538	1.23295	-0.200542	-0.298347	-0.0104043	-0.0998844	0.137427	-0.051307	-0.124417	-0.171756	-0.28037	0.643223	2.03282	-0.0533296	-0.0757396	-0.155753	0.529416	1.85708
0.26	0.029304	-0.0881437	0.00410164	0.12704	0.955978	-0.249673	0.251009	0.101027	-0.200611	0.35157	0.243244	-0.0769299	-0.0099026	0.328591	-0.133038	0.0127107	1.23128	-0.176714	-0.293481	-0.0103962	-0.101457	0.129652	-0.0506078	-0.113441	-0.174663	-0.269565	0.649618	2.03073	-0.0612633	-0.0791738	-0.162899	0.513201	1.85812
0.27	0.0294916	-0.0826777	0.00345054	0.138476	0.95773	-0.24879	0.229963	0.0971824	-0.203031	0.339293	0.252924	-0.0607788	-0.009899	0.357019	-0.120809	0.0183162	1.2232	-0.1542	-0.287543	-0.0103881	-0.102953	0.121872	-0.0490651	-0.10229	-0.177404	-0.259447	0.656226	2.02889	-0.0700062	-0.0827999	-0.170535	0.499257	1.85855
0.28	0.029618	-0.0774385	0.00144378	0.149883	0.959379	-0.24784	0.208847	0.0939634	-0.20425	0.326455	0.261926	-0.0447858	-0.00989539	0.382864	-0.109878	0.0214568	1.20895	-0.132774	-0.281002	-0.01038	-0.104432	0.114307	-0.0465232	-0.0909856	-0.180044	-0.24999	0.663123	2.0273	-0.0794137	-0.0865092	-0.178641	0.487476	1.85826
0.29	0.0296669	-0.0725519	-0.00187625	0.161254	0.960889	-0.246827	0.187924	0.0913347	-0.204586	0.313526	0.270577	-0.028696	-0.00989179	0.406157	-0.100532	0.0223756	1.18874	-0.112346	-0.274413	-0.0103719	-0.105946	0.107126	-0.0429212	-0.0795566	-0.182641	-0.241148	0.670376	2.02592	-0.0893269	-0.09021	-0.187177	0.477725	1.85719
0.3	0.029633	-0.0681069	-0.00637573	0.172582	0.962224	-0.245765	0.167435	0.0891909	-0.204478	0.300977	0.27924	-0.0121782	-0.00988819	0.426947	-0.092951	0.0213213	1.16281	-0.0930787	-0.26838	-0.0103637	-0.107539	0.100458	-0.0382819	-0.0680439	-0.185248	-0.232861	0.678038	2.02471	-0.0995948	-0.0938246	-0.196099	0.46988	1.85535
0.31	0.0295273	-0.0641634	-0.0118613	0.183858	0.963357	-0.244672	0.147573	0.0873954	-0.204405	0.28924	0.288274	0.00509684	-0.00988458	0.445285	-0.0872191	0.0184955	1.1314	-0.0754099	-0.263472	-0.0103556	-0.109251	0.0943938	-0.0326951	-0.056495	-0.18791	-0.225052	0.686135	2.02361	-0.110091	-0.0972846	-0.20537	0.463838	1.85281
0.32	0.0293803	-0.060758	-0.0181137	0.195083	0.964264	-0.24357	0.128458	0.0858118	-0.204804	0.278666	0.29799	0.0233855	-0.00988098	0.461204	-0.0833421	0.0140177	1.09477	-0.0599759	-0.26012	-0.0103474	-0.111126	0.0889904	-0.0262969	-0.0449558	-0.190664	-0.217633	0.694661	2.02257	-0.120722	-0.100529	-0.214967	0.459526	1.84971
